<svg id="Group_242" data-name="Group 242" xmlns="http://www.w3.org/2000/svg" width="27.868" height="40.333" viewBox="0 0 27.868 40.333">
  <path id="Path_388" data-name="Path 388" d="M37.619,22.545C38.06,23.174,39.13,25,39,25.63c.315-.315-.126-1.889-1.07-3.274A8.894,8.894,0,0,0,35.1,19.9,14.278,14.278,0,0,1,37.619,22.545Z" transform="translate(-19.861 -7.979)" fill="#fff"/>
  <path id="Path_389" data-name="Path 389" d="M41.3,27.3c.315-.252.378-2.708-1.511-4.975A6.9,6.9,0,0,0,38.4,21C40.856,23.771,41.611,26.6,41.3,27.3Z" transform="translate(-21.083 -8.387)" fill="#fff"/>
  <path id="Path_390" data-name="Path 390" d="M14.878,48.641c-.315-.5-.945-1.763-.63-2.141-.5.252-.189,1.511.252,2.2a6.584,6.584,0,0,0,2.2,1.952A10.574,10.574,0,0,1,14.878,48.641Z" transform="translate(-12.044 -17.829)" fill="#fff"/>
  <path id="Path_391" data-name="Path 391" d="M12.817,45.1c-.441.126-.945,1.7.315,3.274a4.132,4.132,0,0,0,1.07,1.008C12.565,47.43,12.376,45.478,12.817,45.1Z" transform="translate(-11.431 -17.311)" fill="#fff"/>
  <path id="Path_392" data-name="Path 392" d="M29.708,12.008a18.356,18.356,0,0,0,.5-9.949,1.346,1.346,0,0,0-2.645.5c.378,2.015.819,5.667-.567,8.816A4.546,4.546,0,0,1,29.708,12.008Z" transform="translate(-16.862 -0.969)" fill="#fff"/>
  <ellipse id="Ellipse_68" data-name="Ellipse 68" cx="3.652" cy="3.652" rx="3.652" ry="3.652" transform="translate(0 6.127)" fill="#fff"/>
  <path id="Path_393" data-name="Path 393" d="M40.474,44.9,33.3,31.042a3.289,3.289,0,0,0-.252-1.322A28.009,28.009,0,0,0,25.8,19.456a4.042,4.042,0,0,0-5.6.441,3.917,3.917,0,0,0-.945,2.771c-.063.567.819,7.745-2.9,13.035A1.31,1.31,0,0,0,18.5,37.213,21.447,21.447,0,0,0,21.9,26.76a18.791,18.791,0,0,1,3.715,5.856,3.859,3.859,0,0,0,.945,1.448l-5.1,10.894a1.986,1.986,0,0,0,3.589,1.7l5.478-11.712a.231.231,0,0,0,.189-.063h.063l6.171,11.838a1.924,1.924,0,0,0,2.708.819A1.972,1.972,0,0,0,40.474,44.9Z" transform="translate(-12.83 -7.472)" fill="#fff"/>
</svg>
